<svg xmlns="http://www.w3.org/2000/svg"
     width="6.4in" height="1.06667in"
     viewBox="0 0 1920 320">
  <path id="Selection"
        fill="#DCE7E0" stroke="black" stroke-width="1"
        d="M 0.00,320.00
           C 0.00,320.00 1920.00,320.00 1920.00,320.00
             1920.00,320.00 1920.00,61.00 1920.00,61.00
             1920.00,61.00 1876.00,81.14 1876.00,81.14
             1876.00,81.14 1797.00,111.95 1797.00,111.95
             1694.95,149.24 1571.89,184.77 1466.00,209.88
             1424.69,219.68 1383.02,229.08 1341.00,235.27
             1341.00,235.27 1291.00,241.09 1291.00,241.09
             1291.00,241.09 1281.00,242.00 1281.00,242.00
             1272.46,242.10 1251.33,242.46 1244.13,239.12
             1240.80,237.58 1240.35,234.81 1238.36,232.00
             1236.34,229.16 1231.62,224.55 1229.00,222.04
             1221.19,214.57 1203.34,201.41 1194.00,195.43
             1157.62,172.16 1121.08,154.15 1079.00,143.63
             1066.69,140.55 1043.37,136.15 1031.00,136.00
             1031.00,136.00 1006.00,136.00 1006.00,136.00
             1006.00,136.00 985.00,138.32 985.00,138.32
             985.00,138.32 956.00,135.00 956.00,135.00
             956.00,135.00 933.00,136.00 933.00,136.00
             933.00,136.00 913.00,137.83 913.00,137.83
             913.00,137.83 834.00,147.73 834.00,147.73
             755.97,159.22 678.33,173.93 601.00,189.40
             601.00,189.40 471.00,216.21 471.00,216.21
             471.00,216.21 430.00,225.21 430.00,225.21
             430.00,225.21 414.00,228.70 414.00,228.70
             414.00,228.70 387.00,230.00 387.00,230.00
             387.00,230.00 361.00,231.91 361.00,231.91
             361.00,231.91 336.00,233.09 336.00,233.09
             336.00,233.09 315.00,234.91 315.00,234.91
             315.00,234.91 166.00,245.09 166.00,245.09
             166.00,245.09 112.00,249.09 112.00,249.09
             112.00,249.09 90.00,250.96 90.00,250.96
             90.00,250.96 31.00,255.09 31.00,255.09
             31.00,255.09 22.00,255.99 22.00,255.99
             22.00,255.99 7.00,257.00 7.00,257.00
             5.05,257.05 2.37,256.89 1.02,258.60
             -0.23,260.19 0.00,264.01 0.00,266.00
             0.00,266.00 0.00,320.00 0.00,320.00 Z" />
</svg>
