<svg width="396" height="244.93502967952264" viewBox="0 0 349.99999999999994 216.48298077735583">
    <g
        transform="matrix(46.219879150390625,0,0,46.219879150390625,59.47341998682992,-46.63585381169858)"
        fill="#0d7377">
        <g xmlns="http://www.w3.org/2000/svg">
            <g>
                <polygon fill="#0d7377"
                    points="2.179,1.009 0.989,2.171 1.872,3.302 2.465,3.292 3.062,2.759 2.767,2.428 2.292,2.852     2.085,2.856 1.583,2.211 2.358,1.453 3.225,1.453 4.014,2.49 4.014,1.759 3.443,1.009   "></polygon>
            </g>
            <g>
                <polygon fill="#0d7377"
                    points="2.544,1.708 1.947,2.242 2.242,2.571 2.717,2.148 2.923,2.145 3.426,2.79 2.649,3.547     1.784,3.547 0.985,2.499 0.985,3.23 1.565,3.991 2.83,3.991 4.014,2.833 4.014,2.824 3.137,1.697   "></polygon>
            </g>
        </g>
    </g>
    <g
        transform="matrix(2.0976674556732178,0,0,2.0976674556732178,-5.789559842226825,132.32455400239164)"
        fill="#323232">
        <path
            d="M8.04 17.04 l0 3.44 l9.6 0 c1.36 0 2.44 0.72 2.44 2.28 s-1.08 2.28 -2.44 2.28 l-9.6 0 l0 10.4 l10 0 c1.36 0 2.44 0.72 2.44 2.28 s-1.08 2.28 -2.44 2.28 l-11.8 0 c-2.64 0 -3.48 -1.36 -3.48 -3.44 l0 -21.36 c0 -1.52 0.84 -2.72 2.2 -2.72 l13.08 0 c1.36 0 2.44 0.72 2.44 2.28 s-1.08 2.28 -2.44 2.28 l-10 0 z M35.482 17.28 l0 20.12 c0 1.52 -0.8 2.72 -2.52 2.72 s-2.52 -1.2 -2.52 -2.72 l0 -20.12 l-4.64 0 c-1.44 0 -2.6 -0.76 -2.6 -2.4 s1.16 -2.4 2.6 -2.4 l14.32 0 c1.44 0 2.6 0.76 2.6 2.4 s-1.16 2.4 -2.6 2.4 l-4.64 0 z M51.24400000000001 20.88 l9.28 0 l0 -5.8 c0 -1.52 0.8 -2.72 2.52 -2.72 s2.52 1.2 2.52 2.72 l0 22.32 c0 1.52 -0.8 2.72 -2.52 2.72 s-2.52 -1.2 -2.52 -2.72 l0 -12.2 l-9.28 0 l0 12.2 c0 1.52 -0.8 2.72 -2.52 2.72 s-2.52 -1.2 -2.52 -2.72 l0 -22.32 c0 -1.52 0.8 -2.72 2.52 -2.72 s2.52 1.2 2.52 2.72 l0 5.8 z M76.406 25.16 l0 12.28 c0 1.48 -0.8 2.68 -2.52 2.68 s-2.52 -1.2 -2.52 -2.68 l0 -22.28 c0 -1.48 0.8 -2.68 2.52 -2.68 l8.56 0 c6.08 0 8.4 1.76 8.4 5.68 c0 2.72 -1.52 4.88 -3.64 6.28 c3.44 3.12 5.28 8.24 5.28 12.08 c0 1.84 -0.36 3.6 -2.36 3.6 c-2.2 0 -2.64 -1.48 -2.68 -3.36 c-0.12 -6.04 -3.4 -11.6 -11.04 -11.6 z M76.406 17.04 l0 3.8 c2.2 0 3.24 0.24 4.24 0.44 l2.44 0.64 c1.08 0 2.72 -1.8 2.72 -3 c0 -1.28 -1 -1.88 -2.72 -1.88 l-6.68 0 z M102.048 17.04 l0 3.44 l9.6 0 c1.36 0 2.44 0.72 2.44 2.28 s-1.08 2.28 -2.44 2.28 l-9.6 0 l0 10.4 l10 0 c1.36 0 2.44 0.72 2.44 2.28 s-1.08 2.28 -2.44 2.28 l-11.8 0 c-2.64 0 -3.48 -1.36 -3.48 -3.44 l0 -21.36 c0 -1.52 0.84 -2.72 2.2 -2.72 l13.08 0 c1.36 0 2.44 0.72 2.44 2.28 s-1.08 2.28 -2.44 2.28 l-10 0 z M126.05000000000001 28.32 l-1.04 0 c-1.08 2.92 -1.68 6.76 -1.96 9.44 c-0.16 1.48 -1 2.36 -2.44 2.36 c-2.16 0 -2.6 -1.28 -2.6 -3.2 c0 -1.24 0.68 -8.44 5.92 -18.32 c2.28 -4.32 3.56 -6.36 6.36 -6.36 c2.32 0 3.68 2.04 5.96 6.36 c5.24 9.88 6.32 17.08 6.32 18.32 c0 2.08 -1 3.2 -2.4 3.2 c-2 0 -2.48 -1.16 -2.88 -3.32 c-1.04 -5.76 -6.76 -8.48 -11.24 -8.48 z M126.21000000000001 24.32 l0.52 0 c1.96 0 5.4 0.56 8.04 2.72 l0.08 -0.08 c-1.2 -3.44 -2.72 -6.8 -4.68 -9.92 c-1.6 2.4 -2.92 4.8 -3.96 7.28 z M147.012 37.04 l0 -21.44 c0 -2 0.96 -3.12 3.48 -3.12 c14.92 0 19.12 9.92 19.12 16.04 c0 6.04 -3.88 11.48 -10.68 11.48 l-8.36 0 c-2.6 0 -3.56 -0.64 -3.56 -2.96 z M152.05200000000002 17.28 l0 17.92 l3.88 0 c5.96 0 8 -2 8 -6.32 c0 -6.48 -5.32 -11.6 -11.88 -11.6 z"></path>
    </g>
</svg>